<svg width="276" height="44" viewBox="0 0 276 44" fill="none" xmlns="http://www.w3.org/2000/svg">
<path d="M274.791 7.07142C275.319 7.23211 275.617 7.79071 275.457 8.31911L272.838 16.9298C272.678 17.4582 272.119 17.7563 271.591 17.5956C271.062 17.4349 270.764 16.8763 270.925 16.3479L273.252 8.69396L265.598 6.36642C265.07 6.20574 264.772 5.64714 264.933 5.11874C265.093 4.59035 265.652 4.29226 266.18 4.45294L274.791 7.07142ZM1.67594 0.263046C2.61142 1.12107 3.59957 1.98223 4.63927 2.84468L3.36237 4.384C2.29849 3.5015 1.28525 2.61857 0.324057 1.73695L1.67594 0.263046ZM10.9399 7.63902C13.0202 9.09916 15.2413 10.5524 17.5972 11.9901L16.5554 13.6973C14.1651 12.2387 11.9081 10.7621 9.7909 9.27602L10.9399 7.63902ZM24.5244 15.9585C26.7885 17.1776 29.1501 18.3785 31.6049 19.5552L30.7404 21.3587C28.2582 20.1688 25.8687 18.9539 23.5762 17.7194L24.5244 15.9585ZM38.8572 22.842C41.2474 23.8657 43.7114 24.865 46.2461 25.8355L45.531 27.7033C42.9724 26.7236 40.4843 25.7146 38.0697 24.6804L38.8572 22.842ZM53.7467 28.5497C56.2208 29.3947 58.7529 30.2113 61.3408 30.9961L60.7603 32.9101C58.1505 32.1186 55.5964 31.2949 53.1003 30.4424L53.7467 28.5497ZM69.014 33.1838C71.548 33.8612 74.1292 34.5075 76.7553 35.1198L76.3012 37.0676C73.6542 36.4504 71.0523 35.7989 68.4975 35.1159L69.014 33.1838ZM84.5552 36.8097C87.1336 37.3265 89.751 37.81 92.4054 38.2578L92.0727 40.2299C89.3981 39.7787 86.7606 39.2915 84.1622 38.7707L84.5552 36.8097ZM100.299 39.4671C102.91 39.8271 105.554 40.1522 108.228 40.4401L108.014 42.4286C105.32 42.1385 102.656 41.8111 100.026 41.4484L100.299 39.4671ZM116.188 41.1784C118.814 41.3831 121.467 41.5516 124.146 41.682L124.049 43.6796C121.35 43.5483 118.678 43.3785 116.032 43.1723L116.188 41.1784ZM132.114 41.9542C134.751 42.0062 137.411 42.0207 140.093 41.9962L140.111 43.9962C137.41 44.0208 134.731 44.0061 132.075 43.9538L132.114 41.9542ZM148.076 41.8085C150.719 41.7085 153.381 41.57 156.06 41.3915L156.193 43.3871C153.494 43.5668 150.814 43.7063 148.152 43.8071L148.076 41.8085ZM164.017 40.7474C166.642 40.4972 169.284 40.2081 171.94 39.8787L172.186 41.8635C169.511 42.1952 166.851 42.4864 164.207 42.7384L164.017 40.7474ZM179.846 38.7843C182.461 38.3844 185.09 37.945 187.73 37.4646L188.088 39.4323C185.429 39.9161 182.782 40.3586 180.148 40.7613L179.846 38.7843ZM195.567 35.9248C198.148 35.38 200.739 34.7956 203.34 34.1703L203.807 36.1149C201.188 36.7445 198.579 37.3331 195.98 37.8817L195.567 35.9248ZM211.077 32.1959C213.635 31.5051 216.201 30.7742 218.775 30.0021L219.35 31.9177C216.758 32.6952 214.174 33.4311 211.598 34.1267L211.077 32.1959ZM226.371 27.6098C228.879 26.7821 231.393 25.9147 233.913 25.0066L234.591 26.8881C232.054 27.8024 229.523 28.6757 226.998 29.509L226.371 27.6098ZM241.406 22.191C243.863 21.23 246.324 20.2297 248.789 19.189L249.567 21.0315C247.086 22.0791 244.608 23.0862 242.135 24.0536L241.406 22.191ZM256.097 15.9897C258.511 14.8947 260.929 13.7602 263.349 12.5856L264.223 14.3848C261.787 15.5671 259.353 16.7089 256.923 17.8112L256.097 15.9897ZM270.466 9.01806C271.654 8.4039 272.841 7.77988 274.029 7.14592L274.971 8.91041C273.775 9.54838 272.58 10.1764 271.385 10.7944L270.466 9.01806Z" fill="url(#paint0_linear_81_27606)"/>
<defs>
<linearGradient id="paint0_linear_81_27606" x1="350.676" y1="3.11449" x2="328.527" y2="111.755" gradientUnits="userSpaceOnUse">
<stop stop-color="#51C8EF"/>
<stop offset="1" stop-color="#7AF57A"/>
</linearGradient>
</defs>
</svg>
