<svg width="101" height="100" viewBox="0 0 101 100" fill="none" xmlns="http://www.w3.org/2000/svg">
<rect x="0.5" width="100" height="100" rx="50" fill="#7AF57A" fill-opacity="0.08"/>
<g clip-path="url(#clip0_81_27626)">
<path d="M30.5777 26.1781C28.6465 26.7406 27.1465 28.2781 26.6496 30.1906C26.4527 30.9218 26.4527 32.3281 26.6496 33.0593C27.1465 34.9906 28.759 36.6031 30.6809 37.1C31.3371 37.2687 32.7996 37.2968 33.4371 37.1468C33.6715 37.0906 34.1027 36.9406 34.4027 36.8093L34.9465 36.5656L37.0934 38.7031L39.2309 40.8406L40.2902 39.7906L41.3496 38.7406L39.2027 36.5937L37.0652 34.4468L37.309 33.9031C37.4402 33.6031 37.5902 33.1718 37.6465 32.9375C37.7965 32.3 37.7684 30.8375 37.5996 30.1906C37.0934 28.2406 35.509 26.6562 33.559 26.15C32.7902 25.9531 31.309 25.9625 30.5777 26.1781Z" fill="url(#paint0_linear_81_27626)"/>
<path d="M67.3279 26.1781C65.3967 26.7406 63.8967 28.2781 63.3998 30.1906C63.2123 30.9125 63.2029 32.3562 63.3904 33.0594C63.4654 33.3594 63.6342 33.8 63.7561 34.0437L63.9904 34.5031L61.8436 36.6406L59.7061 38.7781L60.7373 39.8094L61.7592 40.85L63.9061 38.7031L66.0529 36.5656L66.5967 36.8094C66.8967 36.9406 67.3279 37.0906 67.5623 37.1469C68.1998 37.2969 69.6623 37.2687 70.3092 37.1C72.2592 36.5937 73.8436 35.0094 74.3498 33.0594C74.5467 32.3281 74.5467 30.9219 74.3498 30.1906C73.8436 28.2406 72.2592 26.6562 70.3092 26.15C69.5404 25.9531 68.0592 25.9625 67.3279 26.1781Z" fill="url(#paint1_linear_81_27626)"/>
<path d="M48.2026 38.4688C43.4494 39.425 39.7463 43.1937 38.9213 47.9281C38.7338 48.9594 38.7432 51.0781 38.9213 52.0719C39.3713 54.4906 40.4401 56.5344 42.1557 58.2594C42.8963 59 44.1619 60.0312 44.3307 60.0312C44.3588 60.0312 44.3963 59.2812 44.4244 58.3625C44.4713 56.9 44.5088 56.6094 44.7244 55.9625C45.0338 55.0625 45.4463 54.4062 46.0932 53.8062C46.5807 53.3469 46.5901 53.3375 46.4401 53.1031C45.6994 51.9219 45.4369 51.1062 45.4369 50C45.4369 48.5938 45.9244 47.4312 46.9276 46.4281C47.9307 45.425 49.0932 44.9375 50.4994 44.9375C51.9057 44.9375 53.0682 45.425 54.0713 46.4281C55.0744 47.4312 55.5619 48.5938 55.5619 50C55.5619 51.1062 55.2994 51.9219 54.5588 53.1031C54.4088 53.3375 54.4182 53.3469 54.8869 53.7875C55.5432 54.4062 55.9744 55.0812 56.2744 55.9625C56.4901 56.6094 56.5276 56.8906 56.5744 58.3625C56.6026 59.2812 56.6401 60.0312 56.6682 60.0312C56.8369 60.0312 58.1026 59 58.8432 58.2594C61.0932 56 62.2182 53.2437 62.2182 49.9906C62.2182 46.8594 61.1682 44.1781 59.0588 41.9375C57.7838 40.5875 55.9463 39.3969 54.2494 38.8344C52.5151 38.2625 49.9744 38.1125 48.2026 38.4688Z" fill="url(#paint2_linear_81_27626)"/>
<path d="M49.0886 47.3032C47.9584 47.8741 47.4237 48.858 47.5088 50.267C47.5695 51.3238 48.0192 52.1011 48.8699 52.6356C49.4167 52.9636 49.5626 53 50.5226 53C51.4827 53 51.6285 52.9636 52.1754 52.6356C52.5399 52.4048 52.9045 52.0404 53.1354 51.676C53.4635 51.1294 53.5 50.9836 53.5 50.0241C53.5 49.0645 53.4635 48.9187 53.1354 48.3721C52.5764 47.4732 51.8108 47.0602 50.6563 47.0117C49.8542 46.9752 49.6476 47.0117 49.0886 47.3032Z" fill="url(#paint3_linear_81_27626)"/>
<path d="M48.0064 54.2534C47.6755 54.3942 47.276 54.6558 47.1277 54.837C46.5342 55.5212 46.5 55.7224 46.5 58.2581V60.6227L47.3902 60.8038C48.6569 61.0654 52.3431 61.0654 53.6098 60.8038L54.5 60.6126L54.4658 58.1273L54.4315 55.6319L54.0892 55.1388C53.8723 54.837 53.53 54.5351 53.1876 54.3439L52.6284 54.0421L50.6198 54.0119C48.6455 53.9817 48.5999 53.9917 48.0064 54.2534Z" fill="url(#paint4_linear_81_27626)"/>
<path d="M37.0746 61.3156L34.9559 63.4344L34.5246 63.2281C33.4746 62.7406 31.8434 62.6 30.6902 62.9C28.7402 63.4062 27.1559 64.9906 26.6496 66.9406C26.4527 67.6719 26.4527 69.0781 26.6496 69.8094C27.1465 71.7406 28.759 73.3531 30.6809 73.85C31.4215 74.0375 32.8184 74.0469 33.559 73.85C35.509 73.3437 37.0934 71.7594 37.5996 69.8094C37.7684 69.1625 37.7965 67.7 37.6465 67.0625C37.5902 66.8281 37.4402 66.3969 37.309 66.0969L37.0652 65.5531L39.2027 63.4062L41.3496 61.2594L40.309 60.2281C39.7371 59.6562 39.259 59.1875 39.2402 59.1875C39.2215 59.1875 38.2465 60.1437 37.0746 61.3156Z" fill="url(#paint5_linear_81_27626)"/>
<path d="M60.6811 60.2281L59.6592 61.2594L61.7967 63.4062L63.9342 65.5531L63.6904 66.0969C63.3529 66.8562 63.2592 67.3531 63.2498 68.3656C63.2498 69.9875 63.7654 71.2625 64.8811 72.3594C66.0154 73.4844 67.2717 74 68.8748 74C70.4873 74 71.7623 73.475 72.8686 72.3687C73.9748 71.2625 74.4998 69.9875 74.4998 68.375C74.4998 66.7625 73.9748 65.4875 72.8686 64.3812C71.7529 63.2656 70.4779 62.75 68.8654 62.75C67.8529 62.7594 67.3561 62.8531 66.5967 63.1906L66.0529 63.4344L63.9248 61.3156C62.7529 60.1437 61.7779 59.1875 61.7498 59.1875C61.7217 59.1969 61.2436 59.6562 60.6811 60.2281Z" fill="url(#paint6_linear_81_27626)"/>
</g>
<defs>
<linearGradient id="paint0_linear_81_27626" x1="45.485" y1="26.7556" x2="26.2785" y2="41.2411" gradientUnits="userSpaceOnUse">
<stop stop-color="#51C8EF"/>
<stop offset="1" stop-color="#7AF57A"/>
</linearGradient>
<linearGradient id="paint1_linear_81_27626" x1="78.6172" y1="26.7561" x2="59.4221" y2="41.1691" gradientUnits="userSpaceOnUse">
<stop stop-color="#51C8EF"/>
<stop offset="1" stop-color="#7AF57A"/>
</linearGradient>
<linearGradient id="paint2_linear_81_27626" x1="68.7451" y1="39.3719" x2="40.0727" y2="62.641" gradientUnits="userSpaceOnUse">
<stop stop-color="#51C8EF"/>
<stop offset="1" stop-color="#7AF57A"/>
</linearGradient>
<linearGradient id="paint3_linear_81_27626" x1="55.1711" y1="47.302" x2="47.4036" y2="53.1539" gradientUnits="userSpaceOnUse">
<stop stop-color="#51C8EF"/>
<stop offset="1" stop-color="#7AF57A"/>
</linearGradient>
<linearGradient id="paint4_linear_81_27626" x1="56.7282" y1="54.3523" x2="47.4049" y2="62.3798" gradientUnits="userSpaceOnUse">
<stop stop-color="#51C8EF"/>
<stop offset="1" stop-color="#7AF57A"/>
</linearGradient>
<linearGradient id="paint5_linear_81_27626" x1="45.485" y1="59.9328" x2="26.3019" y2="74.425" gradientUnits="userSpaceOnUse">
<stop stop-color="#51C8EF"/>
<stop offset="1" stop-color="#7AF57A"/>
</linearGradient>
<linearGradient id="paint6_linear_81_27626" x1="78.6333" y1="59.9331" x2="59.4472" y2="74.415" gradientUnits="userSpaceOnUse">
<stop stop-color="#51C8EF"/>
<stop offset="1" stop-color="#7AF57A"/>
</linearGradient>
<clipPath id="clip0_81_27626">
<rect width="48" height="48" fill="white" transform="translate(26.5 26)"/>
</clipPath>
</defs>
</svg>
