<svg width="100" height="100" viewBox="0 0 100 100" fill="none" xmlns="http://www.w3.org/2000/svg">
<rect width="100" height="100" rx="50" fill="#7AF57A" fill-opacity="0.08"/>
<path d="M45.5719 29.6281C45.5156 29.825 45.3469 30.5281 45.1875 31.2031C45.0281 31.8687 44.8594 32.5531 44.8031 32.7219C44.7 33.05 44.5875 33.0969 43.3594 33.3594C42.9469 33.4531 42.2531 33.6406 41.8125 33.7906C41.3813 33.9406 40.9594 34.0437 40.875 34.0156C40.8 33.9875 40.1906 33.3875 39.5156 32.6844C38.85 31.9719 38.2781 31.3812 38.2406 31.3625C38.175 31.3344 35.7563 32.6844 35.5969 32.8344C35.5594 32.8719 35.7656 33.7062 36.0563 34.6906L36.5906 36.4812L35.1656 37.8969C34.2563 38.8156 33.6844 39.3125 33.5625 39.3125C33.45 39.3125 32.6625 39.0969 31.8094 38.8437C30.9563 38.5812 30.1969 38.375 30.1313 38.375C30.0656 38.375 29.6719 38.975 29.2594 39.6969L28.5 41.0187L29.55 42.0219C31.1531 43.5312 31.2188 43.5969 31.2188 43.7469C31.2188 43.8219 31.0969 44.2625 30.9469 44.7219C30.7969 45.1719 30.6094 45.8844 30.5156 46.2969C30.2906 47.3844 30.2156 47.5437 29.8688 47.6375C29.7094 47.6844 28.8938 47.8812 28.0594 48.0781L26.5312 48.4437V50V51.5656L28.275 51.9781C29.2406 52.2031 30.075 52.4281 30.15 52.4844C30.2156 52.5312 30.3563 52.9812 30.4688 53.4688C30.5719 53.9562 30.7875 54.7719 30.9469 55.2781C31.0969 55.7844 31.2 56.2812 31.1719 56.375C31.1438 56.4781 30.9844 56.6656 30.8156 56.8062C30.6469 56.9469 30.0656 57.4906 29.5031 58.0156L28.5 58.9812L29.2594 60.3031C29.6719 61.025 30.0656 61.625 30.1406 61.625C30.2344 61.625 31.2188 61.3344 33.4875 60.6312C33.6 60.6031 34.0781 61.0156 35.1094 62.0375L36.5813 63.5L36.0563 65.2719C35.7656 66.2469 35.5312 67.0625 35.5312 67.0906C35.5312 67.1187 36.1313 67.4844 36.8625 67.9062L38.2031 68.675L39.525 67.2875L40.8469 65.9L41.8219 66.2C42.3563 66.3687 43.2 66.5844 43.6875 66.6969C44.1844 66.8 44.625 66.95 44.6906 67.025C44.7844 67.1562 45.5625 70.25 45.5625 70.5031C45.5625 70.5969 45.8344 70.625 46.5938 70.625H47.625V66.5562V62.4969L46.4344 62.4406C40.8563 62.1875 36.1313 58.0812 34.9125 52.4375C34.7063 51.4812 34.6313 49.3719 34.7719 48.3969C35.3625 44.225 37.8938 40.6812 41.5969 38.8062C43.0781 38.0656 44.8313 37.6062 46.6688 37.475L47.625 37.4094V33.35V29.2812H46.6406H45.6656L45.5719 29.6281Z" fill="url(#paint0_linear_81_27640)"/>
<path d="M59.6434 30.1813C57.9746 31.0063 57.984 33.4625 59.6527 34.3156C60.6277 34.8125 61.9496 34.5406 62.5871 33.7156C63.5059 32.5063 63.084 30.7344 61.734 30.1156C61.1527 29.8438 60.2527 29.8813 59.6434 30.1813Z" fill="url(#paint1_linear_81_27640)"/>
<path d="M48.5625 32.2344V32.8438H52.9969H57.4219V32.2344V31.625H52.9969H48.5625V32.2344Z" fill="url(#paint2_linear_81_27640)"/>
<path d="M66.3472 37.1187C65.0534 37.5219 64.4159 39.1719 65.0534 40.4187C65.7566 41.7875 67.7066 42.0875 68.8034 40.9906C69.9003 39.8937 69.6003 37.9437 68.2316 37.2406C67.7441 36.9875 66.9097 36.9312 66.3472 37.1187Z" fill="url(#paint3_linear_81_27640)"/>
<path d="M45.9377 38.5344C45.2252 38.6094 44.0721 38.8813 43.3127 39.1438C39.5064 40.4844 36.7314 43.7094 35.8502 47.7969C35.6346 48.8282 35.6346 51.1719 35.8502 52.2032C36.3564 54.5375 37.3783 56.4594 38.9814 58.0907C41.9252 61.0719 46.1346 62.1969 50.2689 61.1C51.3283 60.8188 53.1377 59.9375 54.0471 59.2625C56.9814 57.0688 58.6877 53.6563 58.6877 50C58.6877 46.9063 57.4971 44.0094 55.3127 41.8438C53.5408 40.0813 51.3752 38.9938 48.8439 38.6094C48.0283 38.4782 46.7346 38.45 45.9377 38.5344ZM49.2096 41.9469C50.1471 42.1813 51.6471 42.9313 52.4064 43.5594C53.3064 44.2907 54.0471 45.2282 54.5721 46.2969C55.2564 47.675 55.4346 48.4625 55.4346 50C55.4346 51.5094 55.2564 52.3063 54.6096 53.6094C53.6064 55.6532 51.9096 57.1344 49.6877 57.8844C48.8908 58.1563 48.6564 58.1938 47.4846 58.2313C46.3689 58.2594 46.0408 58.2407 45.3377 58.0719C43.0033 57.5094 41.0533 56.0282 39.9002 53.9188C39.1596 52.5782 38.8502 51.1625 38.9346 49.5032C39.1314 45.5844 42.1783 42.3032 46.1346 41.75C46.9502 41.6375 48.3377 41.7219 49.2096 41.9469Z" fill="url(#paint4_linear_81_27640)"/>
<path d="M45.7496 42.8188C43.9778 43.2032 42.4496 44.1594 41.409 45.5282C40.8184 46.3063 40.5653 46.7844 40.2559 47.6938C39.6465 49.4844 39.8059 51.6219 40.6871 53.3751C41.0246 54.0594 41.8684 55.1094 42.4965 55.6251C43.1809 56.1876 44.5121 56.8719 45.3746 57.0969C46.2278 57.3219 48.1965 57.3219 49.0215 57.0876C51.4684 56.4126 53.3434 54.6313 54.159 52.2032C54.384 51.5282 54.4121 51.3126 54.4121 50.0469C54.4215 48.8282 54.3934 48.5469 54.2059 47.9376C53.4278 45.4626 51.5153 43.5876 49.0778 42.9219C48.2903 42.7157 46.5184 42.6594 45.7496 42.8188Z" fill="url(#paint5_linear_81_27640)"/>
<path d="M53.0625 38.9562C53.2406 39.0594 53.6438 39.3125 53.9625 39.5187L54.525 39.875H59.1844H63.8438V39.3125V38.75H58.2938H52.7344L53.0625 38.9562Z" fill="url(#paint6_linear_81_27640)"/>
<path d="M70.2283 45.0969C69.244 45.5844 69.1783 47.0938 70.1252 47.7219C70.519 47.9938 71.2502 48.0125 71.719 47.7594C72.4033 47.3938 72.6752 46.4 72.2721 45.6875C71.8877 45.0125 70.9502 44.7407 70.2283 45.0969Z" fill="url(#paint7_linear_81_27640)"/>
<path d="M59.1561 46.4094L59.3248 46.9531L63.8811 46.9812L68.4373 47V46.4375V45.875H63.7123H58.9873L59.1561 46.4094Z" fill="url(#paint8_linear_81_27640)"/>
<path d="M70.1252 52.2781C69.6752 52.5781 69.4502 53.0094 69.4502 53.5531C69.4596 54.4344 69.9658 54.9687 70.8377 55.0437C72.0471 55.1469 72.8439 53.9187 72.2814 52.8219C72.0283 52.3156 71.5877 52.0625 70.9502 52.0625C70.5658 52.0625 70.3502 52.1187 70.1252 52.2781Z" fill="url(#paint9_linear_81_27640)"/>
<path d="M59.2125 53.4406C59.1281 53.6844 59.0625 53.9375 59.0625 54.0031C59.0625 54.1062 59.925 54.125 63.75 54.125H68.4375V53.5625V53H63.9H59.3625L59.2125 53.4406Z" fill="url(#paint10_linear_81_27640)"/>
<path d="M66.1876 58.4844C65.4844 58.8032 64.9219 59.5626 64.8188 60.3594C64.5844 62.0001 66.1876 63.3688 67.8001 62.9001C69.7126 62.3469 70.0876 59.7219 68.4001 58.6719C68.0063 58.4376 67.8282 58.3907 67.2282 58.3626C66.7407 58.3532 66.4126 58.3907 66.1876 58.4844Z" fill="url(#paint11_linear_81_27640)"/>
<path d="M54.0094 60.4531C53.6813 60.6781 53.2875 60.9125 53.1469 60.9781C52.9969 61.0344 52.875 61.1187 52.875 61.1656C52.875 61.2125 55.275 61.25 58.3594 61.25H63.8438V60.6406V60.0312L59.2313 60.0406H54.6094L54.0094 60.4531Z" fill="url(#paint12_linear_81_27640)"/>
<path d="M60.2156 65.4593C58.4344 65.9093 57.8062 68.1406 59.1 69.425C59.775 70.1 60.9469 70.2687 61.8469 69.8281C63.1312 69.1812 63.4969 67.4656 62.5969 66.2843C62.1281 65.6656 60.975 65.2718 60.2156 65.4593Z" fill="url(#paint13_linear_81_27640)"/>
<path d="M48.5625 67.7656V68.375H52.9969H57.4219V67.7656V67.1562H52.9969H48.5625V67.7656Z" fill="url(#paint14_linear_81_27640)"/>
<defs>
<linearGradient id="paint0_linear_81_27640" x1="53.5001" y1="31.3623" x2="16.2034" y2="45.6984" gradientUnits="userSpaceOnUse">
<stop stop-color="#51C8EF"/>
<stop offset="1" stop-color="#7AF57A"/>
</linearGradient>
<linearGradient id="paint1_linear_81_27640" x1="64.3812" y1="30.1654" x2="58.3675" y2="34.7438" gradientUnits="userSpaceOnUse">
<stop stop-color="#51C8EF"/>
<stop offset="1" stop-color="#7AF57A"/>
</linearGradient>
<linearGradient id="paint2_linear_81_27640" x1="59.8894" y1="31.6863" x2="59.3093" y2="34.8633" gradientUnits="userSpaceOnUse">
<stop stop-color="#51C8EF"/>
<stop offset="1" stop-color="#7AF57A"/>
</linearGradient>
<linearGradient id="paint3_linear_81_27640" x1="70.7707" y1="37.2418" x2="64.7446" y2="41.7982" gradientUnits="userSpaceOnUse">
<stop stop-color="#51C8EF"/>
<stop offset="1" stop-color="#7AF57A"/>
</linearGradient>
<linearGradient id="paint4_linear_81_27640" x1="65.0935" y1="39.6455" x2="35.2945" y2="62.07" gradientUnits="userSpaceOnUse">
<stop stop-color="#51C8EF"/>
<stop offset="1" stop-color="#7AF57A"/>
</linearGradient>
<linearGradient id="paint5_linear_81_27640" x1="58.4587" y1="43.4586" x2="39.6436" y2="57.6193" gradientUnits="userSpaceOnUse">
<stop stop-color="#51C8EF"/>
<stop offset="1" stop-color="#7AF57A"/>
</linearGradient>
<linearGradient id="paint6_linear_81_27640" x1="66.938" y1="38.8066" x2="66.5379" y2="41.7832" gradientUnits="userSpaceOnUse">
<stop stop-color="#51C8EF"/>
<stop offset="1" stop-color="#7AF57A"/>
</linearGradient>
<linearGradient id="paint7_linear_81_27640" x1="73.2985" y1="45.0907" x2="69.413" y2="48.0285" gradientUnits="userSpaceOnUse">
<stop stop-color="#51C8EF"/>
<stop offset="1" stop-color="#7AF57A"/>
</linearGradient>
<linearGradient id="paint8_linear_81_27640" x1="71.0694" y1="45.9316" x2="70.6022" y2="48.8882" gradientUnits="userSpaceOnUse">
<stop stop-color="#51C8EF"/>
<stop offset="1" stop-color="#7AF57A"/>
</linearGradient>
<linearGradient id="paint9_linear_81_27640" x1="73.3053" y1="52.2128" x2="69.4281" y2="55.1611" gradientUnits="userSpaceOnUse">
<stop stop-color="#51C8EF"/>
<stop offset="1" stop-color="#7AF57A"/>
</linearGradient>
<linearGradient id="paint10_linear_81_27640" x1="71.0487" y1="53.0566" x2="70.5779" y2="56.012" gradientUnits="userSpaceOnUse">
<stop stop-color="#51C8EF"/>
<stop offset="1" stop-color="#7AF57A"/>
</linearGradient>
<linearGradient id="paint11_linear_81_27640" x1="70.7778" y1="58.5943" x2="64.7648" y2="63.17" gradientUnits="userSpaceOnUse">
<stop stop-color="#51C8EF"/>
<stop offset="1" stop-color="#7AF57A"/>
</linearGradient>
<linearGradient id="paint12_linear_81_27640" x1="66.8988" y1="60.0926" x2="66.4249" y2="63.3056" gradientUnits="userSpaceOnUse">
<stop stop-color="#51C8EF"/>
<stop offset="1" stop-color="#7AF57A"/>
</linearGradient>
<linearGradient id="paint13_linear_81_27640" x1="64.3971" y1="65.6469" x2="58.3576" y2="70.2164" gradientUnits="userSpaceOnUse">
<stop stop-color="#51C8EF"/>
<stop offset="1" stop-color="#7AF57A"/>
</linearGradient>
<linearGradient id="paint14_linear_81_27640" x1="59.8894" y1="67.2176" x2="59.3093" y2="70.3946" gradientUnits="userSpaceOnUse">
<stop stop-color="#51C8EF"/>
<stop offset="1" stop-color="#7AF57A"/>
</linearGradient>
</defs>
</svg>
