<svg width="276" height="44" viewBox="0 0 276 44" fill="none" xmlns="http://www.w3.org/2000/svg">
<path d="M275.291 36.9364C275.819 36.7757 276.117 36.2171 275.957 35.6887L273.338 27.078C273.178 26.5496 272.619 26.2516 272.091 26.4122C271.562 26.5729 271.264 27.1315 271.425 27.6599L273.752 35.3139L266.098 37.6414C265.57 37.8021 265.272 38.3607 265.433 38.8891C265.593 39.4175 266.152 39.7156 266.68 39.5549L275.291 36.9364ZM2.17594 43.7448C3.11142 42.8867 4.09957 42.0256 5.13927 41.1631L3.86237 39.6238C2.79849 40.5063 1.78525 41.3892 0.824057 42.2709L2.17594 43.7448ZM11.4399 36.3688C13.5202 34.9086 15.7413 33.4554 18.0972 32.0177L17.0554 30.3105C14.6651 31.7691 12.4081 33.2457 10.2909 34.7318L11.4399 36.3688ZM25.0244 28.0493C27.2885 26.8302 29.6501 25.6294 32.1049 24.4526L31.2404 22.6491C28.7582 23.839 26.3687 25.054 24.0762 26.2884L25.0244 28.0493ZM39.3572 21.1658C41.7474 20.1421 44.2114 19.1428 46.7461 18.1723L46.031 16.3046C43.4724 17.2842 40.9843 18.2932 38.5697 19.3274L39.3572 21.1658ZM54.2467 15.4581C56.7208 14.6131 59.2529 13.7965 61.8408 13.0117L61.2603 11.0977C58.6505 11.8892 56.0964 12.7129 53.6003 13.5654L54.2467 15.4581ZM69.514 10.824C72.048 10.1466 74.6292 9.50033 77.2553 8.888L76.8012 6.94025C74.1542 7.55744 71.5523 8.20893 68.9975 8.89187L69.514 10.824ZM85.0552 7.19808C87.6336 6.68136 90.251 6.19786 92.9054 5.75003L92.5727 3.7779C89.8981 4.22914 87.2606 4.71634 84.6622 5.23707L85.0552 7.19808ZM100.799 4.54069C103.41 4.1807 106.054 3.85566 108.728 3.56771L108.514 1.57921C105.82 1.86928 103.156 2.19674 100.526 2.55943L100.799 4.54069ZM116.688 2.82942C119.314 2.62473 121.967 2.45622 124.646 2.32581L124.549 0.328178C121.85 0.459537 119.178 0.629272 116.532 0.835467L116.688 2.82942ZM132.614 2.05359C135.251 2.00166 137.911 1.98708 140.593 2.01157L140.611 0.0116519C137.91 -0.0130173 135.231 0.00166827 132.575 0.0539758L132.614 2.05359ZM148.576 2.19927C151.219 2.29936 153.881 2.43786 156.56 2.61633L156.693 0.620757C153.994 0.441001 151.314 0.301511 148.652 0.200701L148.576 2.19927ZM164.517 3.26041C167.142 3.51064 169.784 3.79974 172.44 4.12914L172.686 2.14434C170.011 1.8126 167.351 1.52145 164.707 1.26944L164.517 3.26041ZM180.346 5.22353C182.961 5.62338 185.59 6.06284 188.23 6.54322L188.588 4.57551C185.929 4.09175 183.282 3.64919 180.648 3.2465L180.346 5.22353ZM196.067 8.08297C198.648 8.62777 201.239 9.21223 203.84 9.83752L204.307 7.89294C201.688 7.26327 199.079 6.67473 196.48 6.12609L196.067 8.08297ZM211.577 11.812C214.135 12.5027 216.701 13.2336 219.275 14.0058L219.85 12.0901C217.258 11.3126 214.674 10.5767 212.098 9.88111L211.577 11.812ZM226.871 16.3981C229.379 17.2257 231.893 18.0931 234.413 19.0012L235.091 17.1197C232.554 16.2054 230.023 15.3321 227.498 14.4988L226.871 16.3981ZM241.906 21.8168C244.363 22.7778 246.824 23.7781 249.289 24.8188L250.067 22.9763C247.586 21.9287 245.108 20.9217 242.635 19.9542L241.906 21.8168ZM256.597 28.0181C259.011 29.1132 261.429 30.2476 263.849 31.4222L264.723 29.623C262.287 28.4407 259.853 27.2989 257.423 26.1966L256.597 28.0181ZM270.966 34.9898C272.154 35.6039 273.341 36.2279 274.529 36.8619L275.471 35.0974C274.275 34.4594 273.08 33.8315 271.885 33.2134L270.966 34.9898Z" fill="url(#paint0_linear_81_27605)"/>
<defs>
<linearGradient id="paint0_linear_81_27605" x1="351.176" y1="40.8933" x2="329.027" y2="-67.7471" gradientUnits="userSpaceOnUse">
<stop stop-color="#51C8EF"/>
<stop offset="1" stop-color="#7AF57A"/>
</linearGradient>
</defs>
</svg>
